<?xml version="1.0" encoding="UTF-8" standalone="no"?>
<svg
   xmlns:dc="http://purl.org/dc/elements/1.1/"
   xmlns:cc="http://creativecommons.org/ns#"
   xmlns:rdf="http://www.w3.org/1999/02/22-rdf-syntax-ns#"
   xmlns:svg="http://www.w3.org/2000/svg"
   xmlns="http://www.w3.org/2000/svg"
   version="1.1"
   width="73.624207"
   height="35.944344"
   id="svg3772">
  <defs
     id="defs3774" />
  <metadata
     id="metadata3777">
    <rdf:RDF>
      <cc:Work
         rdf:about="">
        <dc:format>image/svg+xml</dc:format>
        <dc:type
           rdf:resource="http://purl.org/dc/dcmitype/StillImage" />
        <dc:title></dc:title>
      </cc:Work>
    </rdf:RDF>
  </metadata>
  <g
     transform="translate(-155.69004,-86.280206)"
     id="layer1">
    <g
       transform="matrix(1.5241844,0,0,1.487646,543.82665,-522.79777)"
       id="REIHE_1-9-7-4">
      <g
         id="g3707-65-3">
        <polygon
           points="-239.755,409.424 -254.652,433.576 -221.245,433.576 -206.348,409.424 "
           id="polygon258-5-6-0"
           style="fill:#cccccf" />
        <ellipse
           cx="-230.5"
           cy="421.5"
           rx="4.289"
           ry="4.3299999"
           id="ellipse260-8-9-7"
           style="fill:#ffffff" />
      </g>
      <path
         style="opacity:1;fill:#bfbfbf;fill-opacity:1;stroke:none;stroke-width:1.41889656;stroke-linejoin:miter;stroke-miterlimit:4;stroke-dasharray:none;stroke-opacity:1"
         d="M 32.613338,63.779158 C 33.116187,62.966249 40.027099,51.659416 47.97092,38.652864 L 62.414233,15.004588 96.783744,14.903882 c 20.710466,-0.06068 34.317016,0.04288 34.237406,0.260599 -0.0727,0.198718 -6.96054,11.549564 -15.30641,25.224103 l -15.17431,24.862798 -34.420681,0.0029 -34.420681,0.0029 0.91427,-1.478017 z M 85.191047,48.354126 c 2.987416,-1.356926 5.298865,-4.98702 5.298865,-8.321779 0,-3.334759 -2.311449,-6.964853 -5.298865,-8.321778 -3.706978,-1.68376 -8.641703,-0.277702 -11.049653,3.148395 -1.02673,1.460859 -1.204726,2.099446 -1.313536,4.712563 -0.118036,2.834577 -0.04453,3.156576 1.180936,5.173354 2.346693,3.861996 7.186565,5.42414 11.182253,3.609245 z"
         id="path4388-3-8"
         transform="matrix(0.48390241,0,0,0.47905458,-269.95524,402.32414)" />
    </g>
  </g>
</svg>
